PathFileType	4	(X/Y/Z)	C:/Users/opensim2020/Desktop/walking_exp_matlab/subject06_walking21_straight_01_cyclic.trc	
DataRate	CameraRate	NumFrames	NumMarkers	Units	OrigDataRate	OrigDataStartFrame	OrigNumFrames	
100.00	100.00	5	44	mm	100.00	760	102	
Frame#	Time	LFHD			RFHD			LBHD			RBHD			C7			T10			CLAV			STRN			RBAK			LSHO			LUPA			LELB			LFRM			LWRA			LWRB			LFIN			RSHO			RUPA			RELB			RFRM			RWRA			RWRB			RFIN			LASI			RASI			LPSI			RPSI			LTHI			LKNE			LTIB			LANK			LHEE			LTOE			RTHI			RKNE			RTIB			RANK			RHEE			RTOE			*39			*40			*41			*42			*43			
		X1	Y1	Z1	X2	Y2	Z2	X3	Y3	Z3	X4	Y4	Z4	X5	Y5	Z5	X6	Y6	Z6	X7	Y7	Z7	X8	Y8	Z8	X9	Y9	Z9	X10	Y10	Z10	X11	Y11	Z11	X12	Y12	Z12	X13	Y13	Z13	X14	Y14	Z14	X15	Y15	Z15	X16	Y16	Z16	X17	Y17	Z17	X18	Y18	Z18	X19	Y19	Z19	X20	Y20	Z20	X21	Y21	Z21	X22	Y22	Z22	X23	Y23	Z23	X24	Y24	Z24	X25	Y25	Z25	X26	Y26	Z26	X27	Y27	Z27	X28	Y28	Z28	X29	Y29	Z29	X30	Y30	Z30	X31	Y31	Z31	X32	Y32	Z32	X33	Y33	Z33	X34	Y34	Z34	X35	Y35	Z35	X36	Y36	Z36	X37	Y37	Z37	X38	Y38	Z38	X39	Y39	Z39	X40	Y40	Z40	X41	Y41	Z41	X42	Y42	Z42	X43	Y43	Z43	X44	Y44	Z44	

1	0.000	-1033.48535	-945.66144	1628.17041	-905.30359	-959.85498	1606.72498	-1051.75867	-1081.16235	1579.28174	-923.77063	-1091.99524	1562.93738	-1003.50116	-1094.75366	1420.15784	-1001.17474	-1158.65845	1097.25500	-1001.35699	-990.92572	1332.91870	-1015.61487	-967.65601	1154.86279	-932.40204	-1183.38000	1254.86938	-1161.40918	-1036.56812	1373.13965	-1236.14209	-1020.65259	1175.59082	-1250.39502	-1005.99445	1065.00623	-1246.96680	-890.80212	976.39886	-1178.19531	-777.55042	959.88190	-1213.79651	-803.35107	902.65210	-1198.44727	-713.06085	893.73157	-840.05847	-1038.71619	1365.98206	-757.54022	-1117.03821	1179.56897	-741.55585	-1133.34595	1059.01599	-719.37946	-1144.24744	939.82050	-739.58569	-1112.30005	789.62744	-705.12347	-1168.45837	804.86914	-698.04126	-1150.69238	722.92584	-1121.27356	-1014.32141	918.10468	-904.23401	-982.06689	933.77631	-1075.83643	-1161.83203	962.21252	-910.98889	-1133.73303	968.69330	-1162.08435	-1159.99817	616.58807	-1141.98621	-1202.12207	457.26535	-1114.84473	-1401.42908	284.26855	-1067.41150	-1511.68115	163.89954	-1014.97009	-1540.79700	177.69307	-1091.39783	-1438.31091	40.08059	-837.35040	-955.39233	623.23511	-872.08917	-899.19690	514.71277	-877.57166	-896.52667	249.40065	-927.02344	-894.82306	66.78506	-971.27222	-934.16425	43.64334	-927.77271	-742.73431	34.24918	-982.07672	-1051.38196	1665.27991												 
2	0.010	-1032.35303	-933.87091	1631.55383	-904.14954	-948.36005	1609.94519	-1050.90735	-1069.40845	1582.94067	-922.92914	-1080.55383	1566.39099	-1002.74860	-1082.91833	1423.30591	-1000.61871	-1145.95496	1100.44775	-1000.68677	-978.60474	1336.53564	-1014.65594	-954.61920	1158.59265	-931.56793	-1170.73633	1257.90881	-1160.41870	-1024.49048	1376.63110	-1234.71606	-1008.55090	1179.16003	-1249.08643	-994.59009	1068.45825	-1246.35779	-881.05719	977.45178	-1177.78967	-768.04553	957.96307	-1214.59534	-793.50476	903.06970	-1198.90869	-704.78204	891.01208	-839.35944	-1026.71277	1369.74622	-756.72034	-1104.28992	1183.05017	-741.23682	-1119.80798	1062.21497	-719.47632	-1129.44849	942.84302	-740.02405	-1095.49646	793.22595	-705.95880	-1152.04150	807.48682	-699.19000	-1133.31067	725.76318	-1119.52026	-1001.18268	921.38995	-903.73694	-969.56592	937.01886	-1074.80493	-1148.81323	965.18854	-909.95361	-1120.76746	972.49017	-1162.07214	-1142.61157	617.43164	-1143.11499	-1181.35925	457.34558	-1113.87170	-1385.02869	290.95322	-1066.07764	-1498.41699	174.18718	-1013.25873	-1525.33459	189.61604	-1090.79138	-1433.41516	44.40173	-837.36633	-945.40405	623.80176	-873.72021	-891.36200	514.73376	-877.50671	-894.18005	249.77771	-927.07330	-894.50067	66.88715	-971.23444	-934.18182	43.63114	-928.07941	-742.58929	34.11649	-981.01898	-1039.60315	1668.83398												 
3	0.020	-1031.43054	-922.23163	1634.79443	-903.17584	-936.96826	1612.99841	-1050.17249	-1057.71680	1586.36768	-922.21576	-1069.06909	1569.66113	-1001.92828	-1071.03540	1426.10437	-999.81238	-1133.36597	1103.42249	-999.65485	-966.55713	1339.94678	-1013.74335	-941.86652	1162.02502	-930.52808	-1158.26416	1260.74866	-1159.58667	-1012.81989	1380.12073	-1233.77893	-997.27319	1182.73511	-1247.48071	-983.56055	1071.83142	-1245.65088	-871.61017	978.20923	-1177.56470	-758.99371	955.47260	-1214.46619	-787.01886	900.19403	-1199.57983	-697.19177	887.46777	-838.70984	-1014.69934	1373.38391	-755.87860	-1091.50195	1186.47595	-740.74298	-1106.30701	1065.37708	-719.46954	-1114.44861	945.82025	-740.40424	-1078.05066	796.95685	-706.52521	-1135.29028	810.02478	-700.46753	-1115.02551	728.37665	-1118.27136	-988.58698	924.52136	-903.03662	-957.72424	939.36975	-1073.81128	-1136.09229	968.07117	-908.88641	-1108.27063	976.00305	-1162.60547	-1124.25342	618.17450	-1144.22607	-1160.15710	457.42249	-1114.04407	-1362.79163	300.62628	-1064.85107	-1483.08948	184.14265	-1011.49585	-1507.85803	201.35963	-1089.78650	-1426.99231	49.16182	-837.57617	-935.01733	625.07239	-874.00793	-884.54370	514.90820	-877.29901	-891.84076	250.23749	-927.05243	-894.42090	66.96799	-971.20154	-934.34918	43.59462	-928.29932	-742.69928	34.12930	-980.12726	-1027.91431	1672.06738												 
4	0.030	-1030.39624	-910.57111	1637.98022	-902.37885	-925.46313	1616.10388	-1049.49536	-1046.00269	1589.36072	-921.66370	-1057.60486	1572.64941	-1001.13007	-1059.26794	1429.00977	-998.83765	-1120.87585	1106.16248	-998.97491	-954.44843	1343.16418	-1012.79504	-929.41309	1165.32385	-929.36780	-1145.85901	1263.33923	-1158.68921	-1000.97858	1383.97974	-1232.47656	-986.26367	1185.78284	-1246.01782	-972.72583	1074.87573	-1245.23621	-862.83527	978.60455	-1177.75232	-750.48279	952.39307	-1215.78955	-778.52960	899.59888	-1200.70020	-690.41327	883.20355	-838.06970	-1002.49091	1376.76819	-754.82983	-1078.52893	1189.71240	-740.22455	-1092.74304	1068.39490	-719.43158	-1099.17981	948.68585	-742.13684	-1061.49097	800.19916	-707.13293	-1117.88037	812.32318	-701.65497	-1096.47485	730.92853	-1117.09094	-976.28412	927.48450	-901.62219	-944.83441	942.34814	-1072.96765	-1123.77502	970.86041	-908.05334	-1095.95313	978.99835	-1162.90149	-1106.57373	619.00330	-1145.37939	-1138.51587	457.47177	-1113.79626	-1342.38574	305.68219	-1063.73621	-1465.88220	193.23349	-1009.85541	-1488.42529	211.98941	-1088.01111	-1419.08203	53.71925	-837.01416	-925.30750	627.43176	-873.78253	-878.69049	515.23553	-877.02533	-889.88953	250.27794	-926.86761	-894.62341	66.98143	-971.06348	-934.59521	43.52241	-928.28735	-742.88464	34.13702	-979.69293	-1016.49176	1674.98914												 
5	0.040	-1029.49780	-899.13641	1641.08496	-901.58728	-914.24188	1619.30396	-1048.97607	-1034.39917	1592.25256	-921.20453	-1046.14551	1575.44458	-1000.37518	-1047.26941	1431.74280	-997.80945	-1108.72620	1108.97095	-998.32800	-942.51160	1346.20264	-1011.92633	-917.15045	1168.35803	-928.08606	-1133.70386	1265.93604	-1158.14209	-989.77350	1387.03638	-1232.00757	-976.21552	1188.72180	-1244.57849	-962.40601	1077.66931	-1244.84326	-854.43719	978.64154	-1178.17004	-742.48096	948.76178	-1216.74475	-772.02411	897.13867	-1202.07300	-684.35455	878.22107	-837.45276	-990.25958	1379.92322	-753.90338	-1065.59180	1192.72083	-739.55524	-1079.10510	1071.16321	-719.21008	-1083.79688	951.26904	-742.77667	-1043.74329	803.54401	-707.52832	-1100.42993	814.59137	-702.86371	-1077.57556	733.35468	-1115.80908	-964.11566	930.33594	-900.41925	-933.37048	944.39410	-1072.29810	-1111.76794	973.51569	-907.39801	-1084.11340	981.79816	-1163.21423	-1089.22974	619.90973	-1146.46521	-1116.61755	457.68030	-1113.90552	-1320.60071	309.61276	-1062.77173	-1447.08997	201.29309	-1008.40271	-1467.41064	221.21785	-1087.56116	-1408.46338	58.82060	-836.49939	-917.52783	629.90167	-872.08441	-873.81970	515.86749	-876.23828	-888.58911	250.21071	-926.57782	-894.74701	66.89517	-970.83301	-934.85046	43.51519	-928.07849	-743.09760	34.19379	-979.17297	-1005.22815	1677.88660												 
